<?xml version="1.0" encoding="UTF-8" standalone="no"?>
<svg
   xmlns:dc="http://purl.org/dc/elements/1.1/"
   xmlns:cc="http://creativecommons.org/ns#"
   xmlns:rdf="http://www.w3.org/1999/02/22-rdf-syntax-ns#"
   xmlns:svg="http://www.w3.org/2000/svg"
   xmlns="http://www.w3.org/2000/svg"
   xmlns:sodipodi="http://sodipodi.sourceforge.net/DTD/sodipodi-0.dtd"
   xmlns:inkscape="http://www.inkscape.org/namespaces/inkscape"
   height="30px"
   version="1.1"
   viewBox="0 0 30 30"
   width="30px"
   x="0px"
   y="0px"
   id="svg2"
   inkscape:version="0.48.2 r9819"
   sodipodi:docname="list.svg">
  <metadata
     id="metadata34">
    <rdf:RDF>
      <cc:Work
         rdf:about="">
        <dc:format>image/svg+xml</dc:format>
        <dc:type
           rdf:resource="http://purl.org/dc/dcmitype/StillImage" />
      </cc:Work>
    </rdf:RDF>
  </metadata>
  <defs
     id="defs32" />
  <sodipodi:namedview
     pagecolor="#ffffff"
     bordercolor="#666666"
     borderopacity="1"
     objecttolerance="10"
     gridtolerance="10"
     guidetolerance="10"
     inkscape:pageopacity="0"
     inkscape:pageshadow="2"
     inkscape:window-width="640"
     inkscape:window-height="480"
     id="namedview30"
     showgrid="false"
     inkscape:zoom="7.8666667"
     inkscape:cx="15"
     inkscape:cy="15"
     inkscape:window-x="194"
     inkscape:window-y="232"
     inkscape:window-maximized="0"
     inkscape:current-layer="svg2" />
  <rect
     fill="none"
     height="30"
     width="30"
     id="rect4" />
  <path
     d="M7.199,16.013c0,0.742-0.607,1.35-1.351,1.35H3.824  c-0.742,0-1.351-0.607-1.351-1.35v-2.025c0-0.742,0.608-1.35,1.351-1.35h2.024c0.743,0,1.351,0.607,1.351,1.35V16.013z"
     fill="#FFFFFF"
     stroke="#000000"
     stroke-width="2"
     id="path6" />
  <path
     d="M27.526,16.013c0,0.742-0.608,1.35-1.351,1.35H12.523  c-0.743,0-1.351-0.607-1.351-1.35v-2.025c0-0.742,0.607-1.35,1.351-1.35h13.652c0.742,0,1.351,0.607,1.351,1.35V16.013z"
     fill="#FFFFFF"
     stroke="#000000"
     stroke-width="2"
     id="path8" />
  <path
     d="M7.199,6.616c0,0.742-0.607,1.35-1.351,1.35H3.824  c-0.742,0-1.351-0.608-1.351-1.35V4.591c0-0.743,0.608-1.35,1.351-1.35h2.024c0.743,0,1.351,0.607,1.351,1.35V6.616z"
     fill="#FFFFFF"
     stroke="#000000"
     stroke-width="2"
     id="path10" />
  <path
     d="M27.526,6.616c0,0.742-0.608,1.35-1.351,1.35H12.523  c-0.743,0-1.351-0.608-1.351-1.35V4.591c0-0.743,0.607-1.35,1.351-1.35h13.652c0.742,0,1.351,0.607,1.351,1.35V6.616z"
     fill="#FFFFFF"
     stroke="#000000"
     stroke-width="2"
     id="path12" />
  <path
     d="M7.199,25.409c0,0.743-0.607,1.35-1.351,1.35H3.824  c-0.742,0-1.351-0.607-1.351-1.35v-2.025c0-0.742,0.608-1.35,1.351-1.35h2.024c0.743,0,1.351,0.608,1.351,1.35V25.409z"
     fill="#FFFFFF"
     stroke="#000000"
     stroke-width="2"
     id="path14" />
  <path
     d="M27.526,25.409c0,0.743-0.608,1.35-1.351,1.35H12.523  c-0.743,0-1.351-0.607-1.351-1.35v-2.025c0-0.742,0.607-1.35,1.351-1.35h13.652c0.742,0,1.351,0.608,1.351,1.35V25.409z"
     fill="#FFFFFF"
     stroke="#000000"
     stroke-width="2"
     id="path16" />
  <path
     d="M7.199,16.013c0,0.742-0.607,1.35-1.351,1.35H3.824c-0.742,0-1.351-0.607-1.351-1.35v-2.025  c0-0.742,0.608-1.35,1.351-1.35h2.024c0.743,0,1.351,0.607,1.351,1.35V16.013z"
     fill="#FFFFFF"
     id="path18"
     style="fill:#000000" />
  <path
     d="M27.526,16.013c0,0.742-0.608,1.35-1.351,1.35H12.523c-0.743,0-1.351-0.607-1.351-1.35v-2.025  c0-0.742,0.607-1.35,1.351-1.35h13.652c0.742,0,1.351,0.607,1.351,1.35V16.013z"
     fill="#FFFFFF"
     id="path20"
     style="fill:#000000" />
  <path
     d="M7.199,6.616c0,0.742-0.607,1.35-1.351,1.35H3.824c-0.742,0-1.351-0.608-1.351-1.35V4.591  c0-0.743,0.608-1.35,1.351-1.35h2.024c0.743,0,1.351,0.607,1.351,1.35V6.616z"
     fill="#FFFFFF"
     id="path22"
     style="fill:#000000" />
  <path
     d="M27.526,6.616c0,0.742-0.608,1.35-1.351,1.35H12.523c-0.743,0-1.351-0.608-1.351-1.35V4.591  c0-0.743,0.607-1.35,1.351-1.35h13.652c0.742,0,1.351,0.607,1.351,1.35V6.616z"
     fill="#FFFFFF"
     id="path24"
     style="fill:#000000" />
  <path
     d="M7.199,25.409c0,0.743-0.607,1.35-1.351,1.35H3.824c-0.742,0-1.351-0.607-1.351-1.35v-2.025  c0-0.742,0.608-1.35,1.351-1.35h2.024c0.743,0,1.351,0.608,1.351,1.35V25.409z"
     fill="#FFFFFF"
     id="path26"
     style="fill:#000000" />
  <path
     d="M27.526,25.409c0,0.743-0.608,1.35-1.351,1.35H12.523c-0.743,0-1.351-0.607-1.351-1.35v-2.025  c0-0.742,0.607-1.35,1.351-1.35h13.652c0.742,0,1.351,0.608,1.351,1.35V25.409z"
     fill="#FFFFFF"
     id="path28"
     style="fill:#000000" />
</svg>
