<?xml version="1.0" encoding="UTF-8" standalone="no"?>
<svg
   xmlns:dc="http://purl.org/dc/elements/1.1/"
   xmlns:cc="http://creativecommons.org/ns#"
   xmlns:rdf="http://www.w3.org/1999/02/22-rdf-syntax-ns#"
   xmlns:svg="http://www.w3.org/2000/svg"
   xmlns="http://www.w3.org/2000/svg"
   xmlns:sodipodi="http://sodipodi.sourceforge.net/DTD/sodipodi-0.dtd"
   xmlns:inkscape="http://www.inkscape.org/namespaces/inkscape"
   height="26"
   version="1.1"
   viewBox="0 0 26 26"
   width="26"
   x="0px"
   y="0px"
   id="svg2"
   inkscape:version="0.48.2 r9819"
   sodipodi:docname="plus.svg">
  <metadata
     id="metadata18">
    <rdf:RDF>
      <cc:Work
         rdf:about="">
        <dc:format>image/svg+xml</dc:format>
        <dc:type
           rdf:resource="http://purl.org/dc/dcmitype/StillImage" />
      </cc:Work>
    </rdf:RDF>
  </metadata>
  <defs
     id="defs16" />
  <sodipodi:namedview
     pagecolor="#ffffff"
     bordercolor="#666666"
     borderopacity="1"
     objecttolerance="10"
     gridtolerance="10"
     guidetolerance="10"
     inkscape:pageopacity="0"
     inkscape:pageshadow="2"
     inkscape:window-width="640"
     inkscape:window-height="480"
     id="namedview14"
     showgrid="false"
     inkscape:zoom="7.8666667"
     inkscape:cx="15"
     inkscape:cy="15"
     inkscape:window-x="269"
     inkscape:window-y="174"
     inkscape:window-maximized="0"
     inkscape:current-layer="svg2" />
  <rect
     height="26.331814"
     width="25.78702"
     id="rect4"
     x="0.13615108"
     y="-0.19556829"
     style="fill:none" />
  <path
     d="m 24.566774,13.970948 c 0,0.589832 -0.478779,1.078726 -1.058127,1.078726 H 2.5532544 c -0.5827867,0 -1.0607061,-0.488016 -1.0607061,-1.078726 v -1.995074 c 0,-0.595099 0.478779,-1.080482 1.0607061,-1.080482 H 23.508647 c 0.580208,0 1.058127,0.486261 1.058127,1.080482 v 1.995074 z"
     id="path6"
     inkscape:connector-curvature="0"
     style="fill:#ffffff;stroke:#000000;stroke-width:1.73719954" />
  <path
     d="m 14.007849,1.1912408 c 0.577629,0 1.056408,0.4880163 1.056408,1.0804821 V 23.669832 c 0,0.595099 -0.478779,1.083116 -1.056408,1.083116 h -1.953797 c -0.581927,0 -1.058127,-0.488017 -1.058127,-1.083116 V 2.2726006 c 0,-0.5924658 0.4762,-1.0804821 1.058127,-1.0804821 h 1.953797 z"
     id="path8"
     inkscape:connector-curvature="0"
     style="fill:#ffffff;stroke:#000000;stroke-width:1.73719954" />
  <path
     d="m 24.566774,13.970948 c 0,0.589832 -0.478779,1.078726 -1.058127,1.078726 H 2.5532544 c -0.5827867,0 -1.0607061,-0.488016 -1.0607061,-1.078726 v -1.995074 c 0,-0.595099 0.478779,-1.080482 1.0607061,-1.080482 H 23.508647 c 0.580208,0 1.058127,0.486261 1.058127,1.080482 v 1.995074 z"
     id="path10"
     inkscape:connector-curvature="0"
     style="fill:#ffffff" />
  <path
     d="m 14.007849,1.1912408 c 0.577629,0 1.056408,0.4880163 1.056408,1.0804821 V 23.669832 c 0,0.595099 -0.478779,1.083116 -1.056408,1.083116 h -1.953797 c -0.581927,0 -1.058127,-0.488017 -1.058127,-1.083116 V 2.2726006 c 0,-0.5924658 0.4762,-1.0804821 1.058127,-1.0804821 h 1.953797 z"
     id="path12"
     inkscape:connector-curvature="0"
     style="fill:#ffffff" />
</svg>
